<svg xmlns="http://www.w3.org/2000/svg" xmlns:xlink="http://www.w3.org/1999/xlink" width="500" zoomAndPan="magnify" viewBox="0 0 375 374.999991" height="500" preserveAspectRatio="xMidYMid meet" version="1.0"><defs><g/><clipPath id="9c6488c9da"><path d="M 101 56.980469 L 273 56.980469 L 273 278.980469 L 101 278.980469 Z M 101 56.980469 " clip-rule="nonzero"/></clipPath></defs><g clip-path="url(#9c6488c9da)"><path fill="#000000" d="M 259.703125 253.1875 C 253.667969 246.058594 252.390625 236.082031 253.324219 227.058594 C 254.449219 216.226562 259.015625 206.105469 262.617188 195.945312 C 264.453125 190.765625 266.117188 185.492188 266.929688 180.066406 C 267.714844 174.738281 267.894531 169.386719 267.472656 164.015625 C 266.636719 153.089844 263.679688 142.367188 259.640625 132.183594 C 259.148438 130.941406 258.636719 129.703125 258.109375 128.476562 C 258.066406 128.378906 258.007812 128.296875 257.933594 128.222656 C 258.550781 127.316406 259.085938 126.367188 259.550781 125.371094 C 262.269531 119.511719 262.113281 112.835938 261.523438 106.542969 C 261.050781 100.667969 260.238281 94.84375 259.085938 89.066406 C 257.894531 83.515625 256.09375 78.007812 253.140625 73.132812 C 252.410156 71.921875 251.605469 70.761719 250.730469 69.652344 C 249.851562 68.542969 248.90625 67.496094 247.898438 66.507812 C 246.886719 65.515625 245.820312 64.597656 244.691406 63.742188 C 243.566406 62.890625 242.390625 62.113281 241.164062 61.40625 C 239.9375 60.703125 238.675781 60.082031 237.371094 59.539062 C 236.066406 58.996094 234.734375 58.539062 233.371094 58.164062 C 232.007812 57.789062 230.628906 57.503906 229.230469 57.308594 C 227.832031 57.109375 226.425781 57 225.011719 56.980469 C 222.21875 56.972656 219.464844 57.3125 216.753906 58 C 214.042969 58.691406 211.460938 59.710938 209.007812 61.058594 C 206.558594 62.394531 204.3125 64.007812 202.261719 65.902344 C 201.269531 66.828125 200.339844 67.8125 199.476562 68.859375 C 198.527344 69.96875 197.730469 71.167969 196.871094 72.335938 C 196.152344 73.40625 195.222656 74.246094 194.085938 74.855469 L 193.894531 74.941406 L 193.5625 75.0625 C 193.292969 75.152344 193.019531 75.226562 192.742188 75.28125 L 192.574219 75.316406 L 192.449219 75.316406 L 192.210938 75.339844 C 191.925781 75.367188 191.640625 75.378906 191.355469 75.371094 C 190.285156 75.351562 189.242188 75.195312 188.214844 74.898438 C 187.019531 74.59375 185.84375 74.207031 184.675781 73.832031 C 182.304688 73.074219 179.867188 72.308594 177.359375 72.277344 C 176.195312 72.25 175.0625 72.425781 173.960938 72.808594 C 172.859375 73.1875 171.859375 73.75 170.960938 74.492188 C 167.464844 77.382812 166.308594 82.441406 166.910156 86.769531 C 167.640625 91.996094 171.398438 96.230469 175.402344 99.359375 C 177.644531 101.074219 179.972656 102.65625 182.394531 104.109375 C 185.308594 105.90625 188.226562 107.695312 191.148438 109.480469 L 200.128906 114.984375 C 201.25 115.667969 202.648438 116.347656 203.367188 117.414062 C 204.085938 118.484375 203.988281 119.890625 203.75 121.144531 C 203.3125 123.269531 202.664062 125.328125 201.796875 127.320312 L 201.796875 127.359375 L 201.738281 127.5 L 201.5625 127.90625 C 201.433594 128.199219 201.300781 128.488281 201.167969 128.777344 C 200.910156 129.335938 200.652344 129.890625 200.375 130.4375 C 199.8125 131.578125 199.21875 132.703125 198.597656 133.808594 C 196.109375 138.277344 193.242188 142.484375 189.988281 146.429688 C 188.683594 148.023438 187.277344 149.527344 185.769531 150.9375 C 185.660156 151.046875 185.578125 151.175781 185.519531 151.320312 C 185.460938 151.464844 185.433594 151.617188 185.4375 151.769531 C 185.4375 151.925781 185.46875 152.078125 185.527344 152.21875 C 185.585938 152.363281 185.671875 152.492188 185.78125 152.601562 C 185.890625 152.710938 186.019531 152.796875 186.160156 152.855469 C 186.304688 152.917969 186.453125 152.949219 186.609375 152.949219 C 186.765625 152.953125 186.914062 152.925781 187.058594 152.867188 C 187.203125 152.808594 187.332031 152.726562 187.441406 152.617188 C 190.824219 149.507812 193.671875 145.785156 196.269531 142.015625 C 199.179688 137.875 201.65625 133.496094 203.707031 128.871094 C 204.605469 126.886719 205.320312 124.839844 205.847656 122.726562 C 206.070312 121.855469 206.210938 120.96875 206.277344 120.070312 C 212.371094 120.484375 218.460938 120.496094 224.554688 120.101562 C 226.296875 119.984375 228.035156 119.839844 229.769531 119.65625 C 230.300781 123.351562 231.722656 126.660156 234.035156 129.585938 C 237.410156 133.730469 242.6875 136.324219 248.0625 135.289062 C 251.285156 134.660156 254.117188 132.789062 256.316406 130.335938 C 260.398438 140.039062 263.554688 150.289062 264.777344 160.742188 C 265.417969 166.039062 265.488281 171.339844 264.988281 176.652344 C 264.449219 182.078125 263.042969 187.3125 261.320312 192.472656 C 257.871094 202.757812 253.179688 212.769531 251.417969 223.550781 C 249.9375 232.664062 250.425781 242.609375 255.128906 250.761719 C 257.359375 254.632812 260.597656 257.585938 263.773438 260.652344 C 266.515625 263.300781 269.734375 266.355469 270.382812 270.308594 C 270.488281 270.960938 270.507812 271.617188 270.445312 272.277344 C 265.316406 273.660156 260.121094 274.71875 254.863281 275.457031 C 252.140625 275.835938 249.40625 276.113281 246.664062 276.308594 C 244.066406 276.488281 241.375 276.753906 238.777344 276.558594 C 237.804688 276.550781 236.929688 276.253906 236.148438 275.675781 C 235.347656 274.980469 235.105469 273.851562 234.964844 272.824219 C 234.570312 270.101562 234.394531 267.332031 234.117188 264.597656 L 232.351562 247.304688 C 231.222656 236.246094 230.191406 225.171875 228.953125 214.125 C 228.003906 205.769531 226.753906 197.316406 223.804688 189.421875 C 220.960938 181.75 216.378906 174.695312 209.445312 170.148438 C 201.859375 165.175781 192.378906 164.105469 183.621094 165.769531 C 174.527344 167.492188 166.40625 172.210938 159.753906 178.566406 C 152.988281 185.027344 147.765625 192.980469 143.5 201.265625 C 138.722656 210.589844 134.914062 220.292969 132.074219 230.382812 C 129.195312 240.601562 127.339844 251.007812 126.507812 261.59375 C 126.347656 263.675781 126.238281 265.757812 126.160156 267.835938 C 122.875 266.8125 119.804688 265.125 117.671875 262.335938 C 115.539062 259.546875 114.449219 256.160156 114.070312 252.792969 C 113.597656 248.640625 114.179688 244.472656 115.078125 240.441406 C 116.054688 236.050781 117.328125 231.734375 118.324219 227.351562 C 120.332031 218.4375 121.660156 209.425781 122.304688 200.308594 C 122.617188 195.910156 122.820312 191.484375 122.726562 187.074219 C 122.636719 183.109375 122.21875 179.035156 120.722656 175.332031 C 120.074219 173.628906 119.171875 172.070312 118.015625 170.664062 C 116.863281 169.253906 115.511719 168.066406 113.96875 167.097656 C 111.125 165.367188 107.609375 164.523438 104.332031 165.367188 C 103.519531 165.585938 102.746094 165.894531 102.007812 166.296875 C 100.667969 167.023438 101.863281 169.074219 103.207031 168.347656 C 104.515625 167.640625 105.910156 167.324219 107.394531 167.398438 C 108.890625 167.484375 110.316406 167.855469 111.660156 168.519531 C 113.132812 169.25 114.429688 170.210938 115.558594 171.402344 C 116.6875 172.59375 117.578125 173.945312 118.226562 175.453125 C 119.8125 178.925781 120.242188 182.84375 120.351562 186.625 C 120.480469 190.941406 120.28125 195.289062 119.992188 199.601562 C 119.390625 208.570312 118.113281 217.4375 116.152344 226.207031 C 115.179688 230.5625 113.925781 234.851562 112.933594 239.210938 C 111.984375 243.324219 111.292969 247.59375 111.617188 251.832031 C 111.902344 255.488281 112.855469 259.167969 114.808594 262.308594 C 115.859375 263.941406 117.136719 265.371094 118.648438 266.589844 C 120.160156 267.808594 121.824219 268.757812 123.640625 269.433594 C 124.542969 269.789062 125.464844 270.09375 126.402344 270.34375 C 126.554688 270.390625 126.714844 270.402344 126.875 270.382812 C 127.007812 270.4375 127.148438 270.472656 127.292969 270.488281 C 145.460938 272.304688 163.664062 272.796875 181.902344 271.96875 C 184.125 271.867188 186.351562 271.746094 188.570312 271.605469 C 190.277344 271.53125 191.96875 271.316406 193.640625 270.96875 C 196.957031 270.203125 200.496094 268.050781 201.296875 264.496094 C 201.457031 263.78125 201.492188 263.0625 201.402344 262.335938 C 201.3125 261.609375 201.101562 260.917969 200.769531 260.265625 C 200.4375 259.613281 200.003906 259.039062 199.46875 258.539062 C 198.933594 258.039062 198.332031 257.644531 197.660156 257.355469 C 195.511719 256.40625 193.136719 256.265625 190.921875 255.511719 C 190.042969 255.246094 189.300781 254.769531 188.683594 254.089844 C 187.703125 252.863281 187.761719 251.238281 188.0625 249.78125 C 188.917969 245.632812 190.25 241.613281 191.515625 237.585938 C 193.808594 230.316406 195.824219 222.855469 194.625 215.203125 C 193.9375 210.734375 191.96875 206.039062 188.652344 202.828125 C 189.480469 201.3125 190.214844 199.753906 190.855469 198.148438 C 191.554688 196.425781 192.167969 194.667969 192.777344 192.921875 C 193.277344 191.472656 190.988281 190.851562 190.492188 192.292969 C 189.46875 195.230469 188.367188 198.433594 186.84375 201.351562 C 186.046875 200.785156 185.199219 200.308594 184.300781 199.925781 C 179.152344 197.769531 172.425781 198.976562 168.488281 203 C 166.539062 204.996094 164.613281 208.515625 166.722656 211.046875 C 167.746094 212.273438 169.652344 212.871094 171.171875 213.128906 C 172.949219 213.425781 174.714844 213.378906 176.472656 212.988281 C 181.335938 211.953125 184.832031 208.796875 187.410156 204.878906 C 190.148438 207.730469 191.710938 211.882812 192.324219 215.636719 C 193.476562 222.671875 191.542969 229.652344 189.453125 236.316406 C 188.273438 240.089844 187.015625 243.839844 186.132812 247.71875 C 185.699219 249.617188 185.238281 251.519531 185.773438 253.417969 C 186.078125 254.566406 186.675781 255.535156 187.5625 256.324219 C 189.261719 257.796875 191.535156 258.1875 193.667969 258.648438 C 195.5625 259.050781 197.671875 259.5 198.644531 261.21875 C 200.324219 264.191406 197.480469 267.144531 194.851562 268.183594 C 191.652344 269.460938 187.921875 269.351562 184.542969 269.527344 C 167.492188 270.425781 150.457031 270.164062 133.441406 268.742188 C 131.800781 268.605469 130.160156 268.449219 128.523438 268.292969 C 128.894531 257.957031 130.265625 247.757812 132.640625 237.695312 C 135.015625 227.628906 138.34375 217.894531 142.628906 208.484375 C 146.511719 200 151.128906 191.722656 157.253906 184.640625 C 163.1875 177.773438 170.574219 172.070312 179.296875 169.300781 C 187.558594 166.683594 196.933594 166.496094 204.875 170.285156 C 212.25 173.804688 217.375 180.308594 220.585938 187.695312 C 223.875 195.296875 225.328125 203.617188 226.3125 211.773438 C 227.613281 222.414062 228.535156 233.109375 229.632812 243.769531 C 230.203125 249.433594 230.78125 255.097656 231.363281 260.761719 C 231.65625 263.613281 231.945312 266.464844 232.234375 269.3125 C 232.472656 271.648438 232.378906 274.511719 233.777344 276.511719 C 235.128906 278.433594 237.457031 278.910156 239.671875 278.945312 C 242.332031 278.980469 245.019531 278.785156 247.667969 278.578125 C 253.1875 278.144531 258.652344 277.363281 264.066406 276.226562 C 266.675781 275.679688 269.265625 275.046875 271.832031 274.324219 C 272.269531 274.210938 272.542969 273.933594 272.660156 273.496094 C 274.203125 264.507812 264.707031 259.09375 259.703125 253.1875 Z M 254.246094 129.058594 C 252.617188 130.839844 250.648438 132.074219 248.339844 132.761719 C 247.210938 133.070312 246.0625 133.1875 244.894531 133.117188 C 243.722656 133.046875 242.597656 132.789062 241.515625 132.34375 C 239.261719 131.394531 237.367188 129.96875 235.828125 128.066406 C 234.203125 126.074219 233.085938 123.828125 232.472656 121.328125 C 230.925781 115.328125 232.023438 108.976562 233.53125 103.085938 C 235.0625 97.105469 237.207031 91.355469 239.964844 85.832031 C 241.308594 83.148438 242.785156 80.539062 244.394531 78.003906 C 245.214844 76.710938 243.160156 75.519531 242.347656 76.804688 C 238.917969 82.21875 236.101562 87.933594 233.894531 93.945312 C 232.8125 96.898438 231.886719 99.898438 231.125 102.949219 C 230.296875 106.113281 229.742188 109.324219 229.464844 112.585938 C 229.347656 114.167969 229.347656 115.75 229.464844 117.335938 C 223.230469 117.964844 216.984375 118.171875 210.726562 117.953125 C 209.164062 117.898438 207.605469 117.816406 206.046875 117.707031 C 205.679688 116.476562 204.984375 115.476562 203.960938 114.703125 C 202.675781 113.769531 201.339844 112.910156 199.957031 112.128906 L 195.59375 109.449219 L 186.785156 104.015625 C 182.078125 101.125 177.097656 98.382812 173.339844 94.273438 C 172.484375 93.355469 171.726562 92.355469 171.074219 91.28125 C 170.722656 90.707031 170.40625 90.113281 170.125 89.503906 C 170.078125 89.410156 170.035156 89.3125 169.996094 89.214844 C 169.996094 89.1875 169.917969 89.011719 169.902344 88.972656 C 169.808594 88.726562 169.722656 88.496094 169.640625 88.21875 C 169.488281 87.703125 169.367188 87.183594 169.273438 86.65625 C 169.273438 86.539062 169.234375 86.429688 169.21875 86.316406 L 169.195312 86.113281 C 169.164062 85.847656 169.144531 85.578125 169.128906 85.304688 C 169.097656 84.765625 169.097656 84.226562 169.128906 83.683594 C 169.128906 83.4375 169.167969 83.1875 169.195312 82.941406 C 169.191406 82.894531 169.191406 82.847656 169.195312 82.800781 L 169.195312 82.738281 C 169.222656 82.589844 169.246094 82.4375 169.277344 82.265625 C 169.367188 81.757812 169.488281 81.257812 169.640625 80.769531 C 169.71875 80.515625 169.800781 80.265625 169.894531 80.019531 L 170.015625 79.703125 C 170.050781 79.636719 170.078125 79.570312 170.105469 79.5 C 170.320312 79.035156 170.566406 78.585938 170.839844 78.152344 C 170.96875 77.953125 171.105469 77.761719 171.238281 77.566406 C 171.253906 77.550781 171.265625 77.535156 171.277344 77.515625 L 171.320312 77.46875 L 171.59375 77.140625 C 171.925781 76.769531 172.285156 76.425781 172.671875 76.113281 L 172.714844 76.074219 L 172.765625 76.035156 C 172.871094 75.96875 172.96875 75.894531 173.070312 75.828125 C 173.292969 75.679688 173.523438 75.546875 173.761719 75.425781 C 173.855469 75.375 173.949219 75.324219 174.046875 75.28125 L 174.191406 75.210938 C 174.429688 75.121094 174.667969 75.035156 174.914062 74.964844 C 175.160156 74.890625 175.386719 74.835938 175.632812 74.789062 L 175.878906 74.746094 L 176.054688 74.746094 C 176.15625 74.746094 176.257812 74.746094 176.363281 74.714844 C 178.695312 74.535156 180.804688 75.15625 183.09375 75.875 C 185.386719 76.59375 187.699219 77.417969 190.121094 77.699219 C 191.304688 77.867188 192.472656 77.792969 193.625 77.480469 C 194.777344 77.167969 195.824219 76.636719 196.757812 75.894531 C 197.851562 74.902344 198.789062 73.78125 199.574219 72.53125 C 200.328125 71.453125 201.148438 70.429688 202.035156 69.457031 C 203.820312 67.515625 205.816406 65.828125 208.023438 64.390625 C 210.234375 62.953125 212.585938 61.816406 215.082031 60.972656 C 217.570312 60.121094 220.125 59.605469 222.746094 59.429688 C 225.371094 59.253906 227.972656 59.425781 230.550781 59.9375 C 233.175781 60.460938 235.695312 61.308594 238.101562 62.480469 C 240.511719 63.648438 242.734375 65.105469 244.773438 66.84375 C 248.859375 70.46875 251.890625 74.828125 253.875 79.921875 C 255.972656 85.105469 257.121094 90.617188 257.933594 96.128906 C 258.332031 98.855469 258.644531 101.636719 258.933594 104.414062 C 259.320312 107.578125 259.511719 110.753906 259.507812 113.941406 C 259.511719 117.035156 259.011719 120.042969 258.007812 122.96875 C 257.167969 125.253906 255.914062 127.285156 254.246094 129.058594 Z M 179.859375 209.179688 C 177.226562 210.675781 173.964844 211.433594 170.984375 210.671875 C 169.820312 210.378906 167.929688 209.800781 168.136719 208.261719 C 168.355469 207.199219 168.808594 206.25 169.496094 205.414062 C 172.523438 201.46875 178.5625 200.300781 183.082031 201.96875 C 184.003906 202.316406 184.867188 202.777344 185.664062 203.359375 C 184.21875 205.789062 182.28125 207.730469 179.859375 209.179688 Z M 179.859375 209.179688 " fill-opacity="1" fill-rule="nonzero"/></g><g fill="#000000" fill-opacity="1"><g transform="translate(93.924444, 319.331681)"><g><path d="M 46.890625 -31.9375 L 46.890625 -28.890625 L 43.03125 -28.890625 L 35.625 -2.25 C 35.34375 -1.425781 35.09375 -0.8125 34.875 -0.40625 C 34.65625 -0.0078125 34.390625 0.28125 34.078125 0.46875 C 33.773438 0.65625 33.378906 0.75 32.890625 0.75 C 32.410156 0.75 32.03125 0.660156 31.75 0.484375 C 31.476562 0.304688 31.242188 0.015625 31.046875 -0.390625 C 30.847656 -0.796875 30.628906 -1.414062 30.390625 -2.25 L 24.765625 -21.46875 C 24.765625 -21.4375 24.472656 -20.390625 23.890625 -18.328125 L 23.4375 -16.671875 L 22.953125 -14.953125 C 22.335938 -12.703125 21.601562 -10.066406 20.75 -7.046875 L 19.40625 -2.25 C 19.113281 -1.175781 18.75 -0.410156 18.3125 0.046875 C 17.875 0.515625 17.269531 0.75 16.5 0.75 C 15.78125 0.75 15.210938 0.523438 14.796875 0.078125 C 14.390625 -0.359375 14.019531 -1.132812 13.6875 -2.25 L 5.46875 -28.890625 L 0.609375 -28.890625 L 0.609375 -31.9375 L 15.375 -31.9375 L 15.375 -28.890625 L 10.90625 -28.890625 L 17.078125 -6.515625 L 23.21875 -28.890625 L 27.453125 -28.890625 L 33.625 -6.515625 L 39.421875 -28.890625 L 35.109375 -28.890625 L 35.109375 -31.9375 Z M 46.890625 -31.9375 "/></g></g></g><g fill="#000000" fill-opacity="1"><g transform="translate(143.748377, 319.331681)"><g><path d="M 16.875 0.578125 C 14.945312 0.578125 13.144531 0.269531 11.46875 -0.34375 C 9.800781 -0.957031 8.367188 -1.8125 7.171875 -2.90625 C 6.015625 -3.96875 5.019531 -5.207031 4.1875 -6.625 C 3.363281 -8.050781 2.757812 -9.554688 2.375 -11.140625 C 1.976562 -12.710938 1.78125 -14.332031 1.78125 -16 C 1.78125 -19.445312 2.582031 -22.566406 4.1875 -25.359375 C 5.03125 -26.828125 6.039062 -28.085938 7.21875 -29.140625 C 8.40625 -30.191406 9.804688 -31.03125 11.421875 -31.65625 C 13.117188 -32.28125 14.9375 -32.59375 16.875 -32.59375 C 18.789062 -32.59375 20.585938 -32.28125 22.265625 -31.65625 C 23.941406 -31.03125 25.375 -30.175781 26.5625 -29.09375 C 27.71875 -28.03125 28.707031 -26.785156 29.53125 -25.359375 C 30.351562 -23.941406 30.960938 -22.441406 31.359375 -20.859375 C 31.742188 -19.273438 31.9375 -17.65625 31.9375 -16 C 31.9375 -12.550781 31.132812 -9.429688 29.53125 -6.640625 C 28.6875 -5.171875 27.675781 -3.910156 26.5 -2.859375 C 25.320312 -1.816406 23.929688 -0.988281 22.328125 -0.375 C 20.648438 0.257812 18.832031 0.578125 16.875 0.578125 Z M 16.875 -2.390625 C 18.351562 -2.390625 19.71875 -2.769531 20.96875 -3.53125 C 22.21875 -4.289062 23.25 -5.328125 24.0625 -6.640625 C 24.851562 -7.910156 25.457031 -9.347656 25.875 -10.953125 C 26.289062 -12.554688 26.5 -14.222656 26.5 -15.953125 C 26.5 -17.335938 26.367188 -18.6875 26.109375 -20 C 25.847656 -21.320312 25.445312 -22.546875 24.90625 -23.671875 C 23.726562 -26.160156 22.179688 -27.890625 20.265625 -28.859375 C 19.234375 -29.367188 18.101562 -29.625 16.875 -29.625 C 15.382812 -29.625 14.015625 -29.242188 12.765625 -28.484375 C 11.523438 -27.722656 10.492188 -26.6875 9.671875 -25.375 C 8.878906 -24.082031 8.269531 -22.632812 7.84375 -21.03125 C 7.425781 -19.425781 7.21875 -17.765625 7.21875 -16.046875 C 7.21875 -13.109375 7.753906 -10.519531 8.828125 -8.28125 C 9.390625 -7.0625 10.050781 -6.019531 10.8125 -5.15625 C 11.570312 -4.300781 12.457031 -3.632812 13.46875 -3.15625 C 14.519531 -2.644531 15.65625 -2.390625 16.875 -2.390625 Z M 16.875 -2.390625 "/></g></g></g><g fill="#000000" fill-opacity="1"><g transform="translate(179.804334, 319.331681)"><g><path d="M 16.875 0.578125 C 14.945312 0.578125 13.144531 0.269531 11.46875 -0.34375 C 9.800781 -0.957031 8.367188 -1.8125 7.171875 -2.90625 C 6.015625 -3.96875 5.019531 -5.207031 4.1875 -6.625 C 3.363281 -8.050781 2.757812 -9.554688 2.375 -11.140625 C 1.976562 -12.710938 1.78125 -14.332031 1.78125 -16 C 1.78125 -19.445312 2.582031 -22.566406 4.1875 -25.359375 C 5.03125 -26.828125 6.039062 -28.085938 7.21875 -29.140625 C 8.40625 -30.191406 9.804688 -31.03125 11.421875 -31.65625 C 13.117188 -32.28125 14.9375 -32.59375 16.875 -32.59375 C 18.789062 -32.59375 20.585938 -32.28125 22.265625 -31.65625 C 23.941406 -31.03125 25.375 -30.175781 26.5625 -29.09375 C 27.71875 -28.03125 28.707031 -26.785156 29.53125 -25.359375 C 30.351562 -23.941406 30.960938 -22.441406 31.359375 -20.859375 C 31.742188 -19.273438 31.9375 -17.65625 31.9375 -16 C 31.9375 -12.550781 31.132812 -9.429688 29.53125 -6.640625 C 28.6875 -5.171875 27.675781 -3.910156 26.5 -2.859375 C 25.320312 -1.816406 23.929688 -0.988281 22.328125 -0.375 C 20.648438 0.257812 18.832031 0.578125 16.875 0.578125 Z M 16.875 -2.390625 C 18.351562 -2.390625 19.71875 -2.769531 20.96875 -3.53125 C 22.21875 -4.289062 23.25 -5.328125 24.0625 -6.640625 C 24.851562 -7.910156 25.457031 -9.347656 25.875 -10.953125 C 26.289062 -12.554688 26.5 -14.222656 26.5 -15.953125 C 26.5 -17.335938 26.367188 -18.6875 26.109375 -20 C 25.847656 -21.320312 25.445312 -22.546875 24.90625 -23.671875 C 23.726562 -26.160156 22.179688 -27.890625 20.265625 -28.859375 C 19.234375 -29.367188 18.101562 -29.625 16.875 -29.625 C 15.382812 -29.625 14.015625 -29.242188 12.765625 -28.484375 C 11.523438 -27.722656 10.492188 -26.6875 9.671875 -25.375 C 8.878906 -24.082031 8.269531 -22.632812 7.84375 -21.03125 C 7.425781 -19.425781 7.21875 -17.765625 7.21875 -16.046875 C 7.21875 -13.109375 7.753906 -10.519531 8.828125 -8.28125 C 9.390625 -7.0625 10.050781 -6.019531 10.8125 -5.15625 C 11.570312 -4.300781 12.457031 -3.632812 13.46875 -3.15625 C 14.519531 -2.644531 15.65625 -2.390625 16.875 -2.390625 Z M 16.875 -2.390625 "/></g></g></g><g fill="#000000" fill-opacity="1"><g transform="translate(215.860291, 319.331681)"><g><path d="M 0.703125 0 L 0.703125 -3.03125 L 5.859375 -3.03125 L 5.859375 -28.890625 L 0.703125 -28.890625 L 0.703125 -31.9375 L 29.15625 -31.9375 L 29.15625 -20.28125 L 25.296875 -20.28125 L 25.296875 -28.890625 L 10.859375 -28.890625 L 10.859375 -17.90625 L 18.5 -17.90625 L 18.5 -22.390625 L 21.421875 -22.390625 L 21.421875 -10 L 18.5 -10 L 18.5 -15.375 L 10.859375 -15.375 L 10.859375 -3.03125 L 16.375 -3.03125 L 16.375 0 Z M 0.703125 0 "/></g></g></g><g fill="#000000" fill-opacity="1"><g transform="translate(248.097702, 319.331681)"><g><path d="M 8.828125 0 L 8.828125 -3.03125 L 13.984375 -3.03125 L 13.984375 -12.625 L 4.8125 -28.890625 L 0.484375 -28.890625 L 0.484375 -31.9375 L 14.6875 -31.9375 L 14.6875 -28.890625 L 9.828125 -28.890625 L 17 -15.71875 L 24.375 -28.890625 L 19.640625 -28.890625 L 19.640625 -31.9375 L 32.5 -31.9375 L 32.5 -28.890625 L 28.5 -28.890625 L 18.984375 -12.515625 L 18.984375 -3.03125 L 23.84375 -3.03125 L 23.84375 0 Z M 8.828125 0 "/></g></g></g></svg>