<svg xmlns="http://www.w3.org/2000/svg" xmlns:xlink="http://www.w3.org/1999/xlink" width="500" zoomAndPan="magnify" viewBox="0 0 375 374.999991" height="500" preserveAspectRatio="xMidYMid meet" version="1.0"><defs><clipPath id="b256975599"><path d="M 139 125.082031 L 236 125.082031 L 236 249.582031 L 139 249.582031 Z M 139 125.082031 " clip-rule="nonzero"/></clipPath></defs><g clip-path="url(#b256975599)"><path fill="#000000" d="M 228.410156 235.113281 C 225.003906 231.117188 224.28125 225.523438 224.808594 220.460938 C 225.445312 214.386719 228.023438 208.710938 230.054688 203.011719 C 231.089844 200.109375 232.03125 197.152344 232.492188 194.109375 C 232.933594 191.121094 233.035156 188.121094 232.796875 185.105469 C 232.324219 178.980469 230.65625 172.964844 228.375 167.257812 C 228.097656 166.558594 227.808594 165.863281 227.511719 165.175781 C 227.488281 165.121094 227.453125 165.074219 227.410156 165.035156 C 227.757812 164.527344 228.0625 163.992188 228.324219 163.4375 C 229.859375 160.148438 229.773438 156.40625 229.4375 152.875 C 229.171875 149.582031 228.710938 146.316406 228.0625 143.074219 C 227.390625 139.960938 226.371094 136.875 224.707031 134.140625 C 223.878906 132.777344 222.890625 131.535156 221.746094 130.421875 C 220.601562 129.308594 219.332031 128.355469 217.941406 127.5625 C 216.554688 126.769531 215.085938 126.164062 213.542969 125.746094 C 212 125.324219 210.425781 125.101562 208.824219 125.082031 C 205.613281 125.070312 202.601562 125.832031 199.789062 127.367188 C 198.40625 128.117188 197.136719 129.023438 195.980469 130.085938 C 195.417969 130.601562 194.894531 131.15625 194.40625 131.742188 C 193.871094 132.367188 193.421875 133.035156 192.933594 133.691406 C 192.527344 134.292969 192.003906 134.761719 191.363281 135.105469 L 191.253906 135.152344 L 191.066406 135.222656 C 190.914062 135.273438 190.761719 135.3125 190.605469 135.34375 L 190.507812 135.363281 L 190.4375 135.363281 L 190.304688 135.375 C 190.144531 135.390625 189.980469 135.398438 189.820312 135.394531 C 189.21875 135.382812 188.625 135.296875 188.046875 135.128906 C 187.375 134.957031 186.710938 134.742188 186.046875 134.53125 C 184.710938 134.105469 183.335938 133.675781 181.917969 133.660156 C 180.558594 133.628906 179.355469 134.042969 178.304688 134.902344 C 176.332031 136.523438 175.679688 139.359375 176.019531 141.785156 C 176.429688 144.71875 178.554688 147.09375 180.8125 148.847656 C 182.078125 149.808594 183.394531 150.695312 184.761719 151.511719 C 186.40625 152.519531 188.054688 153.523438 189.703125 154.523438 L 194.773438 157.609375 C 195.40625 157.992188 196.195312 158.375 196.601562 158.972656 C 197.007812 159.574219 196.953125 160.363281 196.820312 161.066406 C 196.570312 162.257812 196.203125 163.410156 195.714844 164.527344 L 195.714844 164.550781 L 195.683594 164.628906 L 195.582031 164.855469 C 195.511719 165.019531 195.433594 165.183594 195.359375 165.347656 C 195.214844 165.65625 195.070312 165.96875 194.914062 166.277344 C 194.597656 166.914062 194.261719 167.546875 193.910156 168.167969 C 192.503906 170.671875 190.886719 173.03125 189.050781 175.242188 C 188.3125 176.140625 187.515625 176.980469 186.667969 177.773438 C 186.539062 177.902344 186.476562 178.058594 186.476562 178.242188 C 186.480469 178.421875 186.542969 178.578125 186.671875 178.707031 C 186.800781 178.835938 186.957031 178.898438 187.140625 178.902344 C 187.324219 178.902344 187.480469 178.839844 187.613281 178.714844 C 189.519531 176.96875 191.128906 174.882812 192.59375 172.769531 C 194.238281 170.449219 195.636719 167.992188 196.796875 165.398438 C 197.300781 164.285156 197.703125 163.136719 198.003906 161.953125 C 198.128906 161.460938 198.210938 160.964844 198.246094 160.460938 C 201.683594 160.695312 205.125 160.699219 208.566406 160.480469 C 209.550781 160.414062 210.53125 160.332031 211.507812 160.230469 C 211.808594 162.300781 212.613281 164.160156 213.917969 165.800781 C 215.824219 168.121094 218.804688 169.578125 221.839844 168.996094 C 223.660156 168.644531 225.257812 167.59375 226.5 166.21875 C 228.804688 171.660156 230.585938 177.410156 231.277344 183.269531 C 231.636719 186.242188 231.675781 189.214844 231.394531 192.195312 C 231.089844 195.238281 230.296875 198.171875 229.324219 201.066406 C 227.375 206.832031 224.726562 212.449219 223.734375 218.496094 C 222.894531 223.605469 223.171875 229.183594 225.828125 233.757812 C 227.085938 235.925781 228.914062 237.582031 230.707031 239.304688 C 232.257812 240.785156 234.074219 242.5 234.441406 244.714844 C 234.5 245.082031 234.511719 245.453125 234.476562 245.824219 C 231.578125 246.597656 228.648438 247.191406 225.675781 247.605469 C 224.140625 247.816406 222.597656 247.972656 221.046875 248.082031 C 219.582031 248.183594 218.0625 248.332031 216.59375 248.222656 C 216.046875 248.21875 215.550781 248.050781 215.113281 247.726562 C 214.660156 247.339844 214.523438 246.703125 214.441406 246.128906 C 214.21875 244.601562 214.121094 243.050781 213.964844 241.515625 L 212.96875 231.816406 C 212.332031 225.613281 211.746094 219.402344 211.046875 213.210938 C 210.511719 208.523438 209.808594 203.785156 208.140625 199.355469 C 206.535156 195.050781 203.949219 191.097656 200.035156 188.546875 C 195.75 185.757812 190.398438 185.15625 185.453125 186.089844 C 180.320312 187.058594 175.734375 189.703125 171.976562 193.265625 C 168.15625 196.890625 165.210938 201.351562 162.800781 205.996094 C 160.101562 211.226562 157.953125 216.667969 156.351562 222.328125 C 154.722656 228.058594 153.675781 233.894531 153.207031 239.832031 C 153.117188 240.996094 153.054688 242.164062 153.011719 243.332031 C 151.15625 242.753906 149.421875 241.808594 148.21875 240.246094 C 147.015625 238.683594 146.398438 236.78125 146.183594 234.894531 C 145.917969 232.566406 146.246094 230.226562 146.753906 227.964844 C 147.304688 225.503906 148.023438 223.085938 148.585938 220.625 C 149.722656 215.628906 150.46875 210.574219 150.832031 205.460938 C 151.011719 202.996094 151.125 200.511719 151.070312 198.039062 C 151.019531 195.816406 150.785156 193.53125 149.941406 191.453125 C 149.1875 189.488281 147.917969 187.949219 146.128906 186.835938 C 144.523438 185.867188 142.535156 185.390625 140.6875 185.867188 C 140.230469 185.988281 139.792969 186.160156 139.375 186.386719 C 138.617188 186.792969 139.292969 187.945312 140.050781 187.535156 C 140.789062 187.140625 141.578125 186.964844 142.414062 187.003906 C 143.261719 187.050781 144.0625 187.261719 144.824219 187.632812 C 145.65625 188.042969 146.386719 188.582031 147.027344 189.25 C 147.664062 189.917969 148.164062 190.675781 148.53125 191.523438 C 149.425781 193.46875 149.667969 195.664062 149.730469 197.785156 C 149.804688 200.207031 149.691406 202.644531 149.527344 205.066406 C 149.1875 210.09375 148.464844 215.066406 147.359375 219.984375 C 146.8125 222.425781 146.105469 224.832031 145.542969 227.277344 C 145.007812 229.582031 144.617188 231.980469 144.800781 234.355469 C 144.960938 236.40625 145.5 238.46875 146.601562 240.230469 C 147.816406 242.113281 149.480469 243.445312 151.589844 244.226562 C 152.097656 244.425781 152.617188 244.597656 153.144531 244.738281 C 153.234375 244.761719 153.324219 244.769531 153.414062 244.757812 C 153.488281 244.789062 153.570312 244.808594 153.648438 244.816406 C 163.90625 245.835938 174.183594 246.113281 184.484375 245.648438 C 185.738281 245.589844 186.996094 245.523438 188.25 245.445312 C 189.210938 245.402344 190.164062 245.285156 191.109375 245.085938 C 192.984375 244.65625 194.980469 243.449219 195.433594 241.457031 C 195.523438 241.058594 195.542969 240.652344 195.492188 240.246094 C 195.441406 239.839844 195.324219 239.453125 195.136719 239.085938 C 194.949219 238.71875 194.703125 238.398438 194.402344 238.117188 C 194.101562 237.835938 193.757812 237.617188 193.378906 237.453125 C 192.167969 236.921875 190.828125 236.839844 189.578125 236.421875 C 189.082031 236.269531 188.660156 236.003906 188.3125 235.621094 C 187.757812 234.933594 187.789062 234.023438 187.960938 233.203125 C 188.445312 230.878906 189.195312 228.625 189.910156 226.367188 C 191.207031 222.289062 192.34375 218.105469 191.667969 213.8125 C 191.277344 211.308594 190.167969 208.675781 188.292969 206.875 C 188.761719 206.023438 189.175781 205.148438 189.539062 204.25 C 189.933594 203.28125 190.28125 202.296875 190.621094 201.320312 C 190.90625 200.507812 189.613281 200.15625 189.332031 200.964844 C 188.753906 202.613281 188.132812 204.410156 187.273438 206.046875 C 186.824219 205.726562 186.34375 205.460938 185.835938 205.246094 C 182.929688 204.035156 179.132812 204.714844 176.910156 206.96875 C 175.808594 208.089844 174.71875 210.0625 175.910156 211.484375 C 176.488281 212.171875 177.566406 212.507812 178.425781 212.648438 C 179.425781 212.816406 180.425781 212.789062 181.417969 212.574219 C 184.164062 211.992188 186.136719 210.21875 187.59375 208.023438 C 189.140625 209.625 190.019531 211.953125 190.367188 214.054688 C 191.019531 218.003906 189.925781 221.917969 188.746094 225.652344 C 188.078125 227.769531 187.371094 229.875 186.871094 232.046875 C 186.625 233.113281 186.367188 234.179688 186.667969 235.246094 C 186.84375 235.890625 187.179688 236.433594 187.679688 236.875 C 188.640625 237.703125 189.921875 237.921875 191.125 238.179688 C 192.195312 238.40625 193.386719 238.65625 193.9375 239.621094 C 194.882812 241.289062 193.277344 242.941406 191.796875 243.527344 C 189.988281 244.242188 187.882812 244.179688 185.972656 244.28125 C 176.347656 244.785156 166.730469 244.636719 157.121094 243.839844 C 156.195312 243.761719 155.269531 243.675781 154.34375 243.585938 C 154.554688 237.792969 155.328125 232.070312 156.667969 226.425781 C 158.007812 220.78125 159.890625 215.324219 162.308594 210.046875 C 164.5 205.289062 167.109375 200.644531 170.566406 196.675781 C 173.917969 192.824219 178.085938 189.625 183.011719 188.070312 C 187.675781 186.605469 192.96875 186.496094 197.453125 188.625 C 201.617188 190.597656 204.511719 194.246094 206.324219 198.386719 C 208.183594 202.652344 209 207.316406 209.558594 211.890625 C 210.292969 217.859375 210.8125 223.855469 211.429688 229.835938 C 211.753906 233.011719 212.078125 236.1875 212.410156 239.363281 C 212.574219 240.960938 212.738281 242.5625 212.902344 244.160156 C 213.035156 245.46875 212.984375 247.074219 213.773438 248.195312 C 214.535156 249.273438 215.851562 249.542969 217.101562 249.558594 C 218.601562 249.582031 220.121094 249.472656 221.617188 249.355469 C 224.730469 249.113281 227.816406 248.671875 230.875 248.035156 C 232.347656 247.730469 233.808594 247.375 235.257812 246.96875 C 235.503906 246.90625 235.660156 246.75 235.726562 246.503906 C 236.597656 241.464844 231.234375 238.429688 228.410156 235.113281 Z M 225.328125 165.503906 C 224.410156 166.5 223.296875 167.191406 221.992188 167.578125 C 220.683594 167.9375 219.398438 167.859375 218.140625 167.34375 C 216.871094 166.8125 215.800781 166.011719 214.929688 164.945312 C 214.011719 163.828125 213.382812 162.570312 213.035156 161.167969 C 212.164062 157.804688 212.78125 154.242188 213.632812 150.9375 C 214.496094 147.582031 215.707031 144.359375 217.265625 141.261719 C 218.023438 139.757812 218.859375 138.292969 219.765625 136.871094 C 220.230469 136.144531 219.070312 135.476562 218.609375 136.199219 C 216.675781 139.234375 215.085938 142.4375 213.835938 145.8125 C 213.226562 147.46875 212.707031 149.148438 212.273438 150.859375 C 211.808594 152.636719 211.496094 154.4375 211.335938 156.265625 C 211.269531 157.152344 211.269531 158.039062 211.335938 158.929688 C 207.820312 159.28125 204.292969 159.398438 200.757812 159.273438 C 199.875 159.246094 198.996094 159.195312 198.113281 159.136719 C 197.90625 158.445312 197.515625 157.886719 196.9375 157.453125 C 196.210938 156.929688 195.457031 156.445312 194.679688 156.007812 L 192.210938 154.503906 L 187.238281 151.457031 C 184.582031 149.835938 181.769531 148.300781 179.648438 145.996094 C 179.164062 145.480469 178.738281 144.921875 178.367188 144.316406 C 178.171875 143.996094 177.992188 143.664062 177.832031 143.320312 C 177.808594 143.269531 177.78125 143.214844 177.761719 143.160156 C 177.761719 143.140625 177.714844 143.042969 177.707031 143.023438 C 177.652344 142.882812 177.605469 142.757812 177.5625 142.597656 C 177.476562 142.3125 177.40625 142.019531 177.351562 141.722656 C 177.351562 141.660156 177.332031 141.597656 177.324219 141.535156 L 177.308594 141.417969 C 177.289062 141.269531 177.28125 141.117188 177.273438 140.964844 C 177.253906 140.664062 177.253906 140.359375 177.273438 140.058594 C 177.273438 139.917969 177.292969 139.777344 177.308594 139.640625 C 177.308594 139.613281 177.308594 139.585938 177.308594 139.5625 L 177.308594 139.527344 C 177.324219 139.441406 177.339844 139.355469 177.355469 139.261719 C 177.40625 138.976562 177.472656 138.695312 177.5625 138.421875 C 177.601562 138.28125 177.652344 138.140625 177.703125 138 L 177.773438 137.824219 C 177.789062 137.789062 177.808594 137.75 177.824219 137.710938 C 177.945312 137.449219 178.082031 137.195312 178.238281 136.953125 C 178.308594 136.839844 178.386719 136.734375 178.460938 136.625 C 178.472656 136.617188 178.476562 136.605469 178.484375 136.597656 L 178.507812 136.570312 L 178.664062 136.386719 C 178.851562 136.179688 179.054688 135.988281 179.269531 135.808594 L 179.324219 135.769531 C 179.382812 135.730469 179.441406 135.6875 179.496094 135.652344 C 179.621094 135.570312 179.753906 135.492188 179.886719 135.425781 C 179.941406 135.394531 179.992188 135.367188 180.046875 135.34375 L 180.128906 135.304688 C 180.265625 135.253906 180.398438 135.207031 180.535156 135.164062 C 180.675781 135.125 180.804688 135.09375 180.945312 135.066406 L 181.082031 135.042969 L 181.183594 135.042969 C 181.238281 135.042969 181.296875 135.042969 181.355469 135.027344 C 182.671875 134.925781 183.863281 135.273438 185.15625 135.675781 C 186.449219 136.078125 187.757812 136.542969 189.125 136.699219 C 189.792969 136.792969 190.449219 136.753906 191.101562 136.578125 C 191.753906 136.402344 192.34375 136.105469 192.871094 135.6875 C 193.488281 135.132812 194.019531 134.503906 194.460938 133.800781 C 194.886719 133.195312 195.351562 132.621094 195.851562 132.078125 C 197.898438 129.867188 200.351562 128.28125 203.214844 127.320312 C 206.074219 126.347656 208.988281 126.152344 211.949219 126.738281 C 214.964844 127.335938 217.640625 128.628906 219.980469 130.613281 C 222.289062 132.644531 224 135.089844 225.121094 137.945312 C 226.304688 140.855469 226.953125 143.945312 227.410156 147.035156 C 227.636719 148.5625 227.8125 150.125 227.976562 151.679688 C 228.195312 153.457031 228.300781 155.238281 228.300781 157.027344 C 228.300781 158.761719 228.019531 160.449219 227.453125 162.085938 C 226.976562 163.371094 226.269531 164.507812 225.328125 165.503906 Z M 183.328125 210.4375 C 181.84375 211.273438 180 211.699219 178.316406 211.273438 C 177.664062 211.105469 176.59375 210.785156 176.710938 209.921875 C 176.835938 209.324219 177.089844 208.792969 177.476562 208.324219 C 179.1875 206.113281 182.597656 205.457031 185.148438 206.390625 C 185.671875 206.585938 186.15625 206.847656 186.609375 207.171875 C 185.789062 208.535156 184.699219 209.621094 183.328125 210.4375 Z M 183.328125 210.4375 " fill-opacity="1" fill-rule="nonzero"/></g></svg>