<svg width="23" height="33" viewBox="0 0 23 33" fill="none" xmlns="http://www.w3.org/2000/svg">
<mask id="mask0_63_661" style="mask-type:luminance" maskUnits="userSpaceOnUse" x="0" y="0" width="23" height="33">
<path d="M0 0H23V33H0V0Z" fill="white"/>
</mask>
<g mask="url(#mask0_63_661)">
<path d="M21.2004 29.166C20.3927 28.1067 20.2214 26.623 20.3464 25.2812C20.4974 23.6711 21.1087 22.1677 21.5903 20.6571C21.8358 19.8868 22.059 19.103 22.1683 18.2964C22.273 17.5043 22.297 16.7092 22.2405 15.9109C22.1285 14.2863 21.733 12.6929 21.1921 11.1791C21.1263 10.9938 21.0578 10.8105 20.9874 10.6273C20.9818 10.6138 20.9735 10.6003 20.9633 10.59C21.0457 10.4554 21.118 10.3146 21.18 10.1665C21.544 9.29472 21.5236 8.30281 21.444 7.36682C21.381 6.49399 21.2717 5.6284 21.118 4.77006C20.9587 3.94382 20.7169 3.12586 20.3223 2.40108C20.126 2.03973 19.8916 1.71151 19.6203 1.41643C19.3489 1.1203 19.0479 0.867668 18.7181 0.658519C18.3893 0.448334 18.041 0.286813 17.6752 0.176026C17.3093 0.0642038 16.9361 0.00622203 16.5563 9.54378e-06C15.795 -0.00309643 15.0808 0.198805 14.414 0.605714C14.0861 0.804509 13.785 1.04472 13.5109 1.32635C13.3775 1.46405 13.2534 1.61004 13.1376 1.76535C13.0107 1.93101 12.9042 2.1091 12.7884 2.28305C12.6921 2.44146 12.568 2.56675 12.4161 2.65682L12.3902 2.66925L12.3457 2.68789C12.3096 2.70135 12.2734 2.7117 12.2364 2.71998L12.2132 2.72516H12.1966L12.1651 2.7293C12.1271 2.73344 12.0882 2.73448 12.0502 2.73344C11.9076 2.73137 11.7668 2.70756 11.6297 2.66304C11.4704 2.61748 11.313 2.56053 11.1555 2.50462C10.8387 2.39176 10.5127 2.27787 10.1765 2.27373C9.85415 2.26545 9.56888 2.3752 9.31972 2.60298C8.85198 3.03267 8.6973 3.78437 8.77788 4.42838C8.87513 5.20492 9.379 5.83444 9.91436 6.29933C10.2145 6.55404 10.5266 6.79011 10.8508 7.00547C11.2407 7.2726 11.6316 7.5387 12.0224 7.80376L13.2247 8.62172C13.3747 8.72318 13.5618 8.82465 13.6582 8.98307C13.7545 9.14252 13.7415 9.35167 13.71 9.53804C13.6507 9.85383 13.5637 10.1603 13.4479 10.4564V10.4616L13.4405 10.4823L13.4164 10.5424C13.3997 10.5869 13.3812 10.6293 13.3636 10.6728C13.3293 10.7557 13.2951 10.8375 13.258 10.9192C13.183 11.0891 13.1033 11.2558 13.02 11.4204C12.6865 12.0851 12.3031 12.7094 11.8678 13.2965C11.6927 13.5336 11.5038 13.7573 11.3028 13.9664C11.2722 14.0006 11.2574 14.042 11.2574 14.0907C11.2583 14.1383 11.2731 14.1797 11.3037 14.2139C11.3343 14.248 11.3713 14.2656 11.4148 14.2656C11.4584 14.2667 11.4954 14.2501 11.5269 14.2159C11.9789 13.7542 12.3605 13.2013 12.7078 12.6401C13.0978 12.025 13.4294 11.3738 13.7045 10.6863C13.8239 10.3912 13.9193 10.0868 13.9907 9.77307C14.0203 9.64365 14.0398 9.51215 14.0481 9.37859C14.8632 9.43967 15.6792 9.44071 16.4952 9.38273C16.7286 9.36513 16.9611 9.34338 17.1926 9.31646C17.2639 9.86626 17.4547 10.3581 17.7641 10.7929C18.2161 11.409 18.9228 11.7942 19.6425 11.6399C20.0741 11.5467 20.4529 11.2692 20.7475 10.9048C21.2939 12.346 21.7163 13.8701 21.8802 15.4242C21.9655 16.2111 21.9747 16.9991 21.908 17.7891C21.8358 18.5956 21.6478 19.3732 21.4171 20.1404C20.9549 21.6697 20.327 23.1576 20.0917 24.7604C19.8926 26.1147 19.9583 27.5932 20.5882 28.8056C20.8864 29.3813 21.3199 29.8193 21.745 30.2759C22.1127 30.6693 22.5434 31.1228 22.6305 31.7109C22.6444 31.8083 22.6472 31.9056 22.6388 32.004C21.9516 32.209 21.2569 32.3663 20.552 32.4761C20.188 32.533 19.8222 32.5734 19.4545 32.6024C19.1071 32.6293 18.7468 32.6687 18.3986 32.6397C18.2689 32.6387 18.1513 32.5952 18.0475 32.5082C17.9401 32.4057 17.9077 32.238 17.8882 32.0847C17.8354 31.6799 17.8123 31.2688 17.7752 30.8619L17.539 28.291C17.3881 26.6468 17.2491 25.0016 17.0833 23.3595C16.9564 22.117 16.7897 20.8611 16.3942 19.6869C16.0135 18.547 15.4004 17.4981 14.4723 16.822C13.4562 16.0827 12.1873 15.9243 11.0147 16.1708C9.79765 16.4275 8.71027 17.1285 7.81924 18.0738C6.91339 19.0336 6.21502 20.216 5.64354 21.4481C5.00352 22.8335 4.49409 24.2758 4.11434 25.7761C3.72811 27.295 3.47988 28.8419 3.36873 30.4157C3.34743 30.7253 3.33261 31.0338 3.32242 31.3434C2.88246 31.1912 2.47122 30.9406 2.18594 30.5254C1.90067 30.1113 1.75432 29.6081 1.70338 29.1069C1.6404 28.4898 1.7182 27.8707 1.83861 27.2712C1.96921 26.6179 2.13963 25.9769 2.27301 25.3257C2.54254 24.0004 2.71945 22.6606 2.80559 21.3053C2.84819 20.6519 2.87505 19.9934 2.86209 19.338C2.85005 18.7489 2.79447 18.1432 2.59441 17.5923C2.41565 17.0726 2.11462 16.6646 1.69041 16.3685C1.30974 16.1117 0.838287 15.9865 0.400183 16.1117C0.291815 16.1438 0.188078 16.1894 0.0889715 16.2494C-0.0907158 16.3571 0.0695209 16.6626 0.249208 16.5549C0.424265 16.4493 0.611362 16.4027 0.809574 16.413C1.01056 16.4265 1.20044 16.4814 1.38105 16.5797C1.57834 16.6885 1.75154 16.8313 1.90344 17.0084C2.05442 17.1854 2.17298 17.3863 2.26004 17.611C2.47215 18.1276 2.52957 18.7095 2.54439 19.2707C2.56199 19.9127 2.53513 20.5598 2.49623 21.2007C2.41565 22.5332 2.24429 23.8513 1.98217 25.1548C1.8525 25.803 1.68486 26.4408 1.55148 27.0879C1.42459 27.6998 1.33196 28.3345 1.3755 28.9641C1.41347 29.5076 1.54129 30.0543 1.80249 30.5213C2.09054 31.0214 2.48511 31.3744 2.98527 31.5805C3.10568 31.6333 3.22887 31.6788 3.35391 31.7161C3.37521 31.7234 3.39652 31.7244 3.41782 31.7223C3.43542 31.7296 3.45487 31.7348 3.47339 31.7379C5.90566 32.0071 8.34256 32.0806 10.785 31.9574C11.0823 31.9418 11.3806 31.9242 11.6779 31.9035C11.9057 31.8921 12.1317 31.8611 12.3559 31.8093C12.8005 31.6954 13.2738 31.3755 13.3812 30.8474C13.4025 30.7408 13.4071 30.6341 13.3951 30.5254C13.3831 30.4177 13.3553 30.3152 13.3108 30.2179C13.2664 30.1216 13.208 30.0357 13.1367 29.9611C13.0654 29.8866 12.9839 29.8286 12.894 29.7851C12.6069 29.6443 12.2892 29.6236 11.9928 29.5118C11.8752 29.4724 11.7751 29.401 11.6927 29.2995C11.5612 29.1173 11.5686 28.876 11.6093 28.6596C11.7242 28.0426 11.902 27.4451 12.0715 26.8467C12.379 25.7657 12.6486 24.6568 12.4883 23.52C12.3957 22.8552 12.1327 22.1574 11.6881 21.6801C11.7992 21.4544 11.8974 21.2224 11.9835 20.9843C12.0771 20.7285 12.1595 20.4666 12.2401 20.2077C12.3077 19.9924 12.0011 19.9002 11.9345 20.1135C11.7974 20.5505 11.6501 21.0267 11.4463 21.4606C11.3398 21.3757 11.2259 21.3053 11.1055 21.2483C10.4164 20.9284 9.51608 21.1075 8.98906 21.7049C8.72786 22.0021 8.46945 22.525 8.75195 22.9018C8.88903 23.0841 9.14466 23.1731 9.34843 23.2114C9.58555 23.2549 9.82266 23.2487 10.0579 23.1907C10.7091 23.0364 11.1768 22.5674 11.5223 21.9855C11.8891 22.409 12.0975 23.0261 12.1799 23.5842C12.3346 24.6299 12.0752 25.6674 11.7955 26.6582C11.6371 27.2184 11.4695 27.7765 11.3509 28.3532C11.2926 28.6348 11.2314 28.9175 11.3028 29.2001C11.3444 29.371 11.4241 29.5149 11.5427 29.6319C11.7705 29.8514 12.0743 29.9094 12.3596 29.9777C12.6134 30.0378 12.8959 30.104 13.0265 30.3598C13.2506 30.8019 12.8699 31.2398 12.5189 31.3952C12.0901 31.5846 11.5908 31.5691 11.1379 31.595C8.85568 31.7285 6.57532 31.6892 4.29681 31.478C4.07729 31.4583 3.85778 31.4345 3.63826 31.4117C3.68828 29.8752 3.87167 28.3583 4.18937 26.8632C4.50706 25.3671 4.9535 23.9196 5.52683 22.5208C6.04644 21.2597 6.66516 20.0286 7.48487 18.9767C8.27957 17.9558 9.26785 17.1078 10.4358 16.6967C11.5417 16.3074 12.7968 16.2795 13.8601 16.8427C14.8474 17.3656 15.5338 18.3327 15.9635 19.4312C16.4044 20.5608 16.598 21.7971 16.7304 23.0095C16.9046 24.5916 17.0278 26.1809 17.1741 27.7661C17.251 28.6079 17.3279 29.4497 17.4066 30.2914C17.4455 30.7159 17.4844 31.1394 17.5233 31.5629C17.5548 31.9097 17.5427 32.3353 17.7298 32.6324C17.9104 32.9192 18.2226 32.9897 18.519 32.9948C18.8746 33 19.235 32.971 19.5897 32.94C20.3279 32.8758 21.0596 32.7598 21.7848 32.591C22.134 32.5092 22.4804 32.415 22.8241 32.3084C22.8824 32.2908 22.9195 32.2493 22.9352 32.1841C23.1418 30.8485 21.8701 30.044 21.2004 29.166ZM20.4696 10.7142C20.2519 10.9793 19.988 11.1626 19.6786 11.264C19.3683 11.3593 19.0636 11.3386 18.7654 11.2019C18.4643 11.0611 18.2105 10.8499 18.004 10.5672C17.7863 10.2711 17.6372 9.93666 17.5548 9.56496C17.3482 8.67348 17.4946 7.72921 17.6965 6.85327C17.9012 5.9649 18.1883 5.10967 18.5579 4.2886C18.7376 3.88998 18.9358 3.5017 19.1507 3.12482C19.2609 2.93327 18.9858 2.75519 18.8765 2.94673C18.418 3.75123 18.041 4.60129 17.7447 5.49483C17.6002 5.93384 17.477 6.38009 17.3742 6.83359C17.2639 7.30366 17.1898 7.78098 17.1519 8.26554C17.1361 8.50058 17.1361 8.73561 17.1519 8.97168C16.3183 9.0659 15.4819 9.09592 14.6437 9.06383C14.4343 9.05554 14.2259 9.04312 14.0166 9.02655C13.9675 8.84432 13.8749 8.69523 13.7378 8.5803C13.5655 8.44156 13.3868 8.3142 13.2025 8.1972L12.6171 7.79961L11.438 6.99097C10.8082 6.56232 10.1413 6.15438 9.63834 5.5435C9.52349 5.40682 9.42253 5.25876 9.33454 5.09931C9.28823 5.01338 9.24562 4.92537 9.20765 4.83425C9.20209 4.82079 9.19561 4.8063 9.19098 4.7918C9.19098 4.78766 9.17986 4.76074 9.17801 4.75556C9.16504 4.71932 9.15393 4.68516 9.14374 4.64374C9.12336 4.56712 9.10669 4.48947 9.09372 4.41078C9.09372 4.39421 9.08909 4.37765 9.08724 4.36108L9.08353 4.33002C9.0789 4.29067 9.07705 4.25029 9.0752 4.20991C9.07057 4.13019 9.07057 4.04943 9.0752 3.9697C9.0752 3.93243 9.07983 3.89515 9.08353 3.85891C9.08353 3.85167 9.08353 3.84545 9.08353 3.83821V3.82889C9.08724 3.80611 9.09094 3.78437 9.09465 3.75848C9.10669 3.6829 9.12244 3.60938 9.14374 3.53587C9.153 3.4986 9.16504 3.46132 9.17708 3.42405L9.19375 3.37746C9.19746 3.36814 9.20209 3.35778 9.2058 3.34743C9.23451 3.27806 9.26693 3.21179 9.30398 3.14656C9.32065 3.11757 9.33917 3.08858 9.35677 3.05959C9.35955 3.05752 9.36047 3.05545 9.36233 3.05234L9.36788 3.0451L9.40493 2.99643C9.44939 2.94156 9.49756 2.89082 9.5485 2.84423L9.55498 2.83802L9.56147 2.83284C9.57536 2.82249 9.58925 2.8111 9.60222 2.80178C9.63186 2.78004 9.66335 2.75933 9.69484 2.74173C9.70781 2.73448 9.71985 2.72723 9.73282 2.71998L9.75227 2.70963C9.78469 2.69617 9.81618 2.68374 9.84859 2.67339C9.88194 2.662 9.91251 2.65372 9.94585 2.64647L9.97827 2.64026H10.0023C10.0153 2.64026 10.0292 2.64026 10.0431 2.63612C10.3552 2.6092 10.6377 2.70238 10.9443 2.80903C11.2509 2.91567 11.5612 3.03785 11.8854 3.0803C12.0437 3.10515 12.1994 3.09376 12.354 3.04717C12.5087 3.00057 12.6486 2.92188 12.7736 2.8111C12.92 2.66407 13.0459 2.49737 13.1506 2.311C13.2515 2.15155 13.3618 1.99935 13.4803 1.8544C13.9657 1.26836 14.5473 0.847995 15.2263 0.593289C15.9042 0.335476 16.5952 0.284742 17.2973 0.439016C18.0123 0.598466 18.6468 0.940145 19.2016 1.46612C19.749 2.00556 20.1547 2.65268 20.4205 3.41059C20.7012 4.18092 20.8549 4.99992 20.9633 5.81891C21.017 6.22478 21.0587 6.63791 21.0976 7.05103C21.1495 7.52109 21.1745 7.99323 21.1745 8.46744C21.1745 8.92716 21.1078 9.37444 20.9735 9.80931C20.8605 10.1489 20.6928 10.4502 20.4696 10.7142ZM10.5108 22.6244C10.1589 22.847 9.7217 22.9588 9.3225 22.8459C9.16782 22.8024 8.91403 22.7165 8.94182 22.4877C8.97146 22.3303 9.03167 22.1885 9.12336 22.0642C9.52905 21.4782 10.3376 21.3042 10.9425 21.5517C11.0666 21.6035 11.1814 21.6728 11.2889 21.7588C11.0944 22.1201 10.8359 22.409 10.5108 22.6244Z" fill="black"/>
</g>
</svg>
